<svg width="20" height="20" viewBox="0 0 20 20" fill="none" xmlns="http://www.w3.org/2000/svg">
<path fill-rule="evenodd" clip-rule="evenodd" d="M17.6085 12.4721L20 10L17.6085 7.52787L18.0902 4.12215L14.7023 3.52787L13.0902 0.489441L10 2.00001L6.90983 0.489441L5.29772 3.52787L1.90983 4.12215L2.39155 7.52787L0 10L2.39155 12.4721L1.90983 15.8779L5.29772 16.4721L6.90983 19.5106L10 18L13.0902 19.5106L14.7023 16.4721L18.0902 15.8779L17.6085 12.4721ZM9 4.00001H11V12H9V4.00001ZM9 15C9 14.4477 9.44771 14 10 14C10.5523 14 11 14.4477 11 15C11 15.5523 10.5523 16 10 16C9.44771 16 9 15.5523 9 15Z" fill="#19A1EB"/>
</svg>
